<svg width="100" height="96" viewBox="0 0 100 96" fill="none" xmlns="http://www.w3.org/2000/svg">
<path fill-rule="evenodd" clip-rule="evenodd" d="M1.08691 1.67822H94.8996L98.913 5.18993H5.10029V81.9458L1.08691 78.2669V1.67822V1.67822ZM80.8528 78.2669H76.8394V75.5913L79.515 76.7618L80.8528 74.4207V78.2669V78.2669Z" stroke="#EF7F1A" stroke-width="2.17391" stroke-miterlimit="22.9256" stroke-linecap="round" stroke-linejoin="round"/>
<path fill-rule="evenodd" clip-rule="evenodd" d="M5.10034 5.18993H98.9131V81.9458H80.8529V74.4207L79.5151 76.7618L75.8361 75.0896L72.8261 77.9324L69.9833 75.2568L66.3044 76.5946V81.9458H5.10034V5.18993Z" stroke="#EF7F1A" stroke-width="2.17391" stroke-miterlimit="22.9256" stroke-linecap="round" stroke-linejoin="round"/>
<path fill-rule="evenodd" clip-rule="evenodd" d="M14.6321 13.8856H89.214V48.3337L86.0368 47.1632L85.3679 43.317H81.3545L79.515 39.8053L75.6689 41.3103L72.8261 38.6347L69.816 41.3103L66.1371 39.8053L64.1304 43.4842L60.2843 43.317L59.6154 47.3304L55.9364 48.501L56.6053 52.5143L53.5953 54.8555L55.602 58.3672L53.5953 61.7117L56.7725 64.22L55.9364 68.0662L59.7826 69.404L60.2843 73.2501H14.6321V13.8856V13.8856ZM89.214 51.0093V52.5143L89.0468 52.3471L89.214 51.0093ZM89.214 63.8856V65.2234L89.0468 64.0528L89.214 63.8856V63.8856ZM89.214 68.2334V73.2501H85.3679L86.0368 69.2367L89.214 68.2334ZM85.0334 73.2501H81.3545L81.5217 73.0829L85.0334 73.2501ZM64.2976 73.2501H61.1204H64.2976Z" stroke="#EF7F1A" stroke-width="1.17057" stroke-miterlimit="22.9256" stroke-linecap="round" stroke-linejoin="round"/>
<path fill-rule="evenodd" clip-rule="evenodd" d="M72.8261 44.1531L75 45.9926L77.6756 44.9893L79.0134 47.4976H81.8562L82.3579 50.1732L85.0335 51.1765L84.5318 54.0194L86.7057 55.8588L85.2007 58.2L86.7057 60.7083L84.5318 62.3806L85.0335 65.3906L82.3579 66.2267L81.8562 69.0695L79.0134 68.9023L77.6756 71.5779L75 70.4073L72.8261 72.414L70.8194 70.4073L67.9766 71.5779L66.6388 69.0695H63.796L63.4616 66.2267L60.6188 65.3906L61.2877 62.5478L58.9465 60.7083L60.4515 58.3672L58.9465 55.8588L61.1204 54.0194L60.6188 51.1765L63.2944 50.3404L63.796 47.4976H66.6388L67.9766 44.9893L70.6522 46.1598L72.8261 44.1531Z" stroke="#EF7F1A" stroke-width="1.17057" stroke-miterlimit="22.9256" stroke-linecap="round" stroke-linejoin="round"/>
<path fill-rule="evenodd" clip-rule="evenodd" d="M66.3042 94.822V76.5946L69.9831 75.2568L72.8259 77.9324L75.836 75.0896L79.5149 76.7618L80.8527 74.4207V94.822L73.4948 91.6448L66.3042 94.822Z" stroke="#EF7F1A" stroke-width="2.17391" stroke-miterlimit="22.9256" stroke-linecap="round" stroke-linejoin="round"/>
<path fill-rule="evenodd" clip-rule="evenodd" d="M72.826 38.6347L75.6688 41.3103L79.515 39.8053L81.3544 43.317H85.3678L86.0367 47.1632L89.8828 48.501L89.0467 52.3471L92.224 54.8555L90.0501 58.2L92.224 61.7117L89.0467 64.0528L89.8828 68.0662L86.0367 69.2367L85.3678 73.2501L81.5216 73.0829L79.515 76.7618L75.836 75.0896L72.826 77.9324L69.9832 75.2568L66.137 76.7618L64.2976 73.2501H60.2842L59.7825 69.404L55.9363 68.0662L56.7725 64.22L53.5952 61.7117L55.6019 58.3672L53.5952 54.8555L56.6052 52.5143L55.9363 48.501L59.6153 47.3304L60.2842 43.317L64.1303 43.4842L66.137 39.8053L69.8159 41.3103L72.826 38.6347Z" stroke="#EF7F1A" stroke-width="2.17391" stroke-miterlimit="22.9256" stroke-linecap="round" stroke-linejoin="round"/>
<path d="M38.7124 23.2501H22.1572V32.4474H38.7124V23.2501Z" stroke="#EF7F1A" stroke-width="2.17391" stroke-miterlimit="22.9256" stroke-linecap="round" stroke-linejoin="round"/>
<path d="M21.99 41.9792H54.097" stroke="#EF7F1A" stroke-width="2.17391" stroke-miterlimit="22.9256" stroke-linecap="round" stroke-linejoin="round"/>
<path d="M21.99 47.8321H40.7191" stroke="#EF7F1A" stroke-width="2.17391" stroke-miterlimit="22.9256" stroke-linecap="round" stroke-linejoin="round"/>
<path d="M21.99 53.8521H48.0769" stroke="#EF7F1A" stroke-width="2.17391" stroke-miterlimit="22.9256" stroke-linecap="round" stroke-linejoin="round"/>
<path d="M21.99 59.705H40.7191" stroke="#EF7F1A" stroke-width="2.17391" stroke-miterlimit="22.9256" stroke-linecap="round" stroke-linejoin="round"/>
<path d="M80.351 56.026H76.1704V64.22H80.351V56.026Z" stroke="#EF7F1A" stroke-width="1.17057" stroke-miterlimit="22.9256" stroke-linecap="round" stroke-linejoin="round"/>
<path d="M76.1706 56.8622C75.1672 56.1933 74.3311 55.3572 73.6622 54.6883C73.1605 54.1866 72.8261 53.6849 72.6588 53.1832C72.4916 52.5143 72.3244 52.0127 72.1572 51.511C72.1572 51.0093 72.1572 50.6749 71.9899 50.3404C71.9899 50.006 71.8227 49.8388 71.6555 49.8388C71.4883 49.6715 71.1538 49.8388 70.9866 49.8388C70.6522 49.8388 70.4849 50.006 70.3177 50.1732C70.1505 50.5077 69.9833 51.0093 69.9833 51.511C69.816 52.1799 69.816 52.8488 69.9833 53.5177C69.9833 54.1866 70.1505 54.8555 70.3177 55.1899C70.4849 55.6916 70.6522 55.8588 70.6522 55.8588C70.8194 56.026 70.6522 56.026 69.816 56.026C68.8127 56.026 67.3077 56.026 66.3043 56.026C65.4682 56.026 65.301 56.1933 65.301 56.3605C65.1338 56.5277 64.9665 56.6949 64.7993 57.0294C64.7993 57.1966 64.7993 57.5311 64.9665 57.6983C64.9665 58.0327 65.301 58.2 65.4682 58.3672C65.4682 58.5344 65.4682 58.5344 65.4682 58.5344C65.301 58.7016 65.301 58.8689 65.301 59.0361C65.1338 59.2033 65.1338 59.5378 65.301 59.705C65.4682 59.8722 65.6354 60.2066 65.8027 60.2066C65.9699 60.3739 65.9699 60.3739 65.9699 60.5411C66.1371 60.5411 65.9699 60.5411 65.9699 60.7083C65.8027 60.8755 65.8027 61.0428 65.8027 61.3772C65.8027 61.7117 65.8027 61.8789 66.1371 62.2133C66.3043 62.3806 66.6388 62.5478 66.806 62.5478C66.9732 62.715 66.806 62.715 66.806 62.8822C66.806 62.8822 66.6388 63.0495 66.6388 63.2167C66.806 63.3839 66.806 63.7184 66.9732 63.8856C67.3077 64.22 67.4749 64.3872 68.6455 64.3872C69.6488 64.3872 71.6555 64.3872 72.9933 64.22C74.4983 63.8856 75.3344 63.5511 76.1706 63.0495" stroke="#EF7F1A" stroke-width="1.17057" stroke-miterlimit="22.9256" stroke-linecap="round" stroke-linejoin="round"/>
</svg>
