<svg width="95" height="99" viewBox="0 0 95 99" fill="none" xmlns="http://www.w3.org/2000/svg">
<path d="M5.93095 14.248H75.4483C76.0158 14.248 76.536 14.721 76.536 15.3357V89.4876C76.536 90.1023 76.0158 90.5752 75.4483 90.5752H5.93095C5.31617 90.5752 4.84326 90.1023 4.84326 89.4876V77.6649H6.97134V88.4472H74.3606V16.4234H6.97134V77.6649H4.84326V15.3357C4.84326 14.721 5.31617 14.248 5.93095 14.248Z" fill="#EF7F1A"/>
<path d="M9.99798 19.1663H71.334C71.6178 19.1663 71.8542 19.4027 71.8542 19.6865V85.1368C71.8542 85.4206 71.6178 85.657 71.334 85.657H9.99798C9.71424 85.657 9.47778 85.4206 9.47778 85.1368V19.6865C9.47778 19.4027 9.71424 19.1663 9.99798 19.1663ZM70.8138 20.254H10.5655V76.7664V77.1447V78.1851V79.1782V84.5693H70.8138V20.254ZM12.4571 77.1447V76.7664V22.9022C12.4571 22.6185 12.6936 22.382 13.0246 22.382H36.0079C36.2916 22.382 36.5281 22.6185 36.5281 22.9022V81.921C36.5281 82.2521 36.2916 82.4885 36.0079 82.4885H13.0246C12.6936 82.4885 12.4571 82.2521 12.4571 81.921V79.1782V78.1851V77.1447ZM13.5448 77.6649V81.4008H35.4877V23.4224H13.5448V77.6649Z" fill="#EF7F1A"/>
<path fill-rule="evenodd" clip-rule="evenodd" d="M13.0245 22.9023H36.0078V81.9211H13.0245V77.6649V55.3437V22.9023Z" stroke="#EF7F1A" stroke-width="1.25502" stroke-miterlimit="22.9256" stroke-linecap="round" stroke-linejoin="round"/>
<path fill-rule="evenodd" clip-rule="evenodd" d="M38.4197 21.1998H69.868V83.6708H38.4197V21.1998ZM41.3044 24.0372H66.9833V80.7861H41.3044V52.1279H40.4532C39.8384 52.1279 39.3655 51.655 39.3655 51.0875C39.3655 50.52 39.8384 50.0471 40.4532 50.0471H41.3044V24.0372V24.0372Z" stroke="#EF7F1A" stroke-width="1.25502" stroke-miterlimit="22.9256" stroke-linecap="round" stroke-linejoin="round"/>
<path d="M78.6168 89.8659H1.34375V96.9122H78.6168V89.8659Z" stroke="#EF7F1A" stroke-width="2.45984" stroke-miterlimit="22.9256" stroke-linecap="round" stroke-linejoin="round"/>
<path d="M44.7094 50.0471H39.7911C39.2165 50.0471 38.7507 50.5129 38.7507 51.0875V51.1348C38.7507 51.7094 39.2165 52.1752 39.7911 52.1752H44.7094C45.284 52.1752 45.7498 51.7094 45.7498 51.1348V51.0875C45.7498 50.5129 45.284 50.0471 44.7094 50.0471Z" stroke="#EF7F1A" stroke-width="1.25502" stroke-miterlimit="22.9256" stroke-linecap="round" stroke-linejoin="round"/>
<path d="M13.2137 7.29631H82.7311C83.3458 7.29631 83.8188 7.81651 83.8188 8.384V82.5831C83.8188 83.1506 83.3458 83.6235 82.7311 83.6235H75.5902V81.4954H81.6907V9.47169H14.3014V15.3357H12.1733V8.384C12.1733 7.81651 12.6462 7.29631 13.2137 7.29631Z" fill="#EF7F1A"/>
<path fill-rule="evenodd" clip-rule="evenodd" d="M75.5902 82.9614H85.8996V90.0078H75.5902V82.9614Z" stroke="#EF7F1A" stroke-width="2.45984" stroke-miterlimit="22.9256" stroke-linecap="round" stroke-linejoin="round"/>
<path d="M20.5437 0.25H90.0611C90.6286 0.25 91.1015 0.722907 91.1015 1.33769V75.4895C91.1015 76.1043 90.6286 76.5772 90.0611 76.5772H82.8729V74.4491H88.9734V2.42537H21.5841V8.24213H19.4561V1.33769C19.4561 0.722907 19.929 0.25 20.5437 0.25V0.25Z" fill="#EF7F1A"/>
<path fill-rule="evenodd" clip-rule="evenodd" d="M82.8729 75.8678H93.2296V82.9614H82.8729V75.8678Z" stroke="#EF7F1A" stroke-width="2.45984" stroke-miterlimit="22.9256" stroke-linecap="round" stroke-linejoin="round"/>
</svg>
