<svg width="100" height="78" viewBox="0 0 100 78" fill="none" xmlns="http://www.w3.org/2000/svg">
<path fill-rule="evenodd" clip-rule="evenodd" d="M79.4037 3.17995C83.3631 3.17995 86.489 6.40999 86.489 10.2652V14.2246C86.489 16.9337 84.926 19.3302 82.6337 20.4763C81.696 20.9973 80.5498 21.3099 79.4037 21.3099C78.1534 21.3099 76.903 20.8931 75.8611 20.2679C75.8611 16.7253 75.8611 6.2016 75.8611 5.88901H79.2995V3.17995H79.4037Z" stroke="#EF7F1A" stroke-width="2.18809" stroke-miterlimit="22.9256" stroke-linecap="round" stroke-linejoin="round"/>
<path fill-rule="evenodd" clip-rule="evenodd" d="M20.3252 3.17995C20.4294 3.17995 20.4294 3.17995 20.5336 3.17995V5.88901H23.5553C23.5553 6.2016 23.5553 17.1421 23.5553 20.4763C22.6175 20.9973 21.4714 21.3099 20.3252 21.3099C16.3658 21.3099 13.24 18.0798 13.24 14.2246V10.2652C13.24 6.40999 16.3658 3.17995 20.3252 3.17995V3.17995Z" stroke="#EF7F1A" stroke-width="2.18809" stroke-miterlimit="22.9256" stroke-linecap="round" stroke-linejoin="round"/>
<path fill-rule="evenodd" clip-rule="evenodd" d="M75.8611 5.88902C75.8611 6.20161 75.8611 21.3099 75.8611 21.5183C75.8611 31.7293 67.5255 40.0649 57.3144 40.0649H42.102C31.8909 40.0649 23.5553 31.7293 23.5553 21.5183C23.5553 21.3099 23.5553 6.20161 23.5553 5.88902H43.0397L42.5188 7.03517L39.0803 6.93097L38.5594 10.3694L35.2251 11.4114L35.9545 14.954L33.2454 17.0379L35.1209 20.0595L33.2454 22.8728L35.9545 25.1651L35.2251 28.4993L38.6636 29.6455L39.0803 32.9797H42.623L44.1859 36.0013L47.5201 34.6468L50.0208 37.0433L52.7299 34.6468L55.8557 36.0013L57.5228 32.8755L60.9613 32.9797L61.4822 29.5413L64.8165 28.4993L64.0871 24.9567L66.7962 22.8728L64.9207 19.8511L66.7962 17.0379L64.0871 14.7456L64.8165 11.4114L61.378 10.2652L60.9613 6.93097H57.4186L56.8977 5.88902H75.8611V5.88902Z" stroke="#EF7F1A" stroke-width="2.18809" stroke-miterlimit="22.9256" stroke-linecap="round" stroke-linejoin="round"/>
<path fill-rule="evenodd" clip-rule="evenodd" d="M20.5337 1.30444H79.2996V5.88902H56.8977L55.8558 3.90931L52.5215 5.26385L50.0208 2.86737L47.3118 5.26385L44.1859 3.90931L43.0398 5.88902H20.5337V1.30444Z" stroke="#EF7F1A" stroke-width="2.18809" stroke-miterlimit="22.9256" stroke-linecap="round" stroke-linejoin="round"/>
<path fill-rule="evenodd" clip-rule="evenodd" d="M50.0207 2.86737L52.5214 5.26385L55.8556 3.90932L57.4186 6.93097H60.9612L61.378 10.2652L64.8164 11.4113L64.087 14.7456L66.7961 17.0379L64.9206 19.8511L66.7961 22.8728L64.087 24.9567L64.8164 28.4993L61.4822 29.5413L60.9612 32.9797L57.5228 32.8755L55.8556 36.0013L52.7298 34.6468L50.0207 37.0433L47.5201 34.6468L44.1858 36.0013L42.6229 32.9797H39.0803L38.6635 29.6454L35.2251 28.4993L35.9544 25.1651L33.2454 22.8728L35.1209 20.0595L33.2454 17.0379L35.9544 14.954L35.2251 11.4113L38.5593 10.3694L39.0803 6.93097L42.5187 7.03516L44.1858 3.90932L47.3117 5.26385L50.0207 2.86737Z" stroke="#EF7F1A" stroke-width="2.18809" stroke-miterlimit="22.9256" stroke-linecap="round" stroke-linejoin="round"/>
<path fill-rule="evenodd" clip-rule="evenodd" d="M50.0208 7.66032L51.7921 9.32744L54.1886 8.38969L55.3347 10.5778H57.9396L58.2522 12.9743L60.6487 13.8078L60.1277 16.2043L62.1074 17.8714L60.7529 19.9553L62.1074 22.1434L60.1277 23.6021L60.6487 26.1028L58.3564 26.8322L57.9396 29.3329L55.4389 29.2287L54.1886 31.5209L51.8963 30.5832L50.0208 32.2503L48.2495 30.5832L45.853 31.5209L44.7069 29.3329H42.102L41.7894 26.9364L39.3929 26.1028L39.9139 23.7063L37.9342 22.1434L39.2887 20.0595L37.9342 17.8714L39.9139 16.3085L39.3929 13.8078L41.6852 13.0785L42.102 10.5778L44.6027 10.682L45.853 8.38969L48.1453 9.32744L50.0208 7.66032Z" stroke="#EF7F1A" stroke-width="1.04195" stroke-miterlimit="22.9256" stroke-linecap="round" stroke-linejoin="round"/>
<path fill-rule="evenodd" clip-rule="evenodd" d="M47.5201 14.954V12.1407H53.3551V14.954H51.8963V24.9567H53.3551V27.7699H47.5201V24.9567H48.9789V14.954H47.5201Z" stroke="#EF7F1A" stroke-width="1.04195" stroke-miterlimit="22.9256" stroke-linecap="round" stroke-linejoin="round"/>
<path fill-rule="evenodd" clip-rule="evenodd" d="M39.9139 63.8214L40.9559 65.1759L42.623 65.8011L41.6852 67.1556L41.581 69.0311L40.0181 68.5101L38.2468 69.0311V67.364L37.2048 65.8011L38.7678 65.2801L39.9139 63.8214Z" stroke="#EF7F1A" stroke-width="1.04195" stroke-miterlimit="22.9256" stroke-linecap="round" stroke-linejoin="round"/>
<path fill-rule="evenodd" clip-rule="evenodd" d="M50.5418 63.8214L51.5838 65.1759L53.2509 65.8011L52.3131 67.1556L52.2089 69.0311L50.646 68.5101L48.8747 69.0311V67.364L47.8328 65.8011L49.3957 65.2801L50.5418 63.8214Z" stroke="#EF7F1A" stroke-width="1.04195" stroke-miterlimit="22.9256" stroke-linecap="round" stroke-linejoin="round"/>
<path fill-rule="evenodd" clip-rule="evenodd" d="M61.4823 63.8214L62.42 65.1759L64.1913 65.8011L63.2536 67.1556L63.1494 69.0311L61.4823 68.5101L59.8151 69.0311L59.7109 67.364L58.7732 65.8011L60.3361 65.2801L61.4823 63.8214Z" stroke="#EF7F1A" stroke-width="1.04195" stroke-miterlimit="22.9256" stroke-linecap="round" stroke-linejoin="round"/>
<path d="M55.2306 40.0649H44.7069C42.9805 40.0649 41.5811 40.858 41.5811 41.8362C41.5811 42.8145 42.9805 43.6076 44.7069 43.6076H55.2306C56.9569 43.6076 58.3564 42.8145 58.3564 41.8362C58.3564 40.858 56.9569 40.0649 55.2306 40.0649Z" stroke="#EF7F1A" stroke-width="2.18809" stroke-miterlimit="22.9256" stroke-linecap="round" stroke-linejoin="round"/>
<path d="M55.6474 43.6076H44.1859V49.4425H55.6474V43.6076Z" stroke="#EF7F1A" stroke-width="2.18809" stroke-miterlimit="22.9256" stroke-linecap="round" stroke-linejoin="round"/>
<path fill-rule="evenodd" clip-rule="evenodd" d="M68.4633 56.5277C67.3172 52.4641 61.1697 49.4425 53.7718 49.4425H45.9572C38.5594 49.4425 32.4119 52.4641 31.2657 56.5277H68.4633V56.5277Z" stroke="#EF7F1A" stroke-width="2.18809" stroke-miterlimit="22.9256" stroke-linecap="round" stroke-linejoin="round"/>
<path d="M77.7366 56.5277H22.0966V76.1163H77.7366V56.5277Z" stroke="#EF7F1A" stroke-width="2.18809" stroke-miterlimit="22.9256" stroke-linecap="round" stroke-linejoin="round"/>
<path d="M67.7339 60.2787H32.2035V72.2611H67.7339V60.2787Z" stroke="#EF7F1A" stroke-width="1.04195" stroke-miterlimit="22.9256" stroke-linecap="round" stroke-linejoin="round"/>
<path fill-rule="evenodd" clip-rule="evenodd" d="M83.5715 53.1935C83.7799 51.8389 83.8841 49.4425 84.8218 48.0879C85.6554 46.7334 87.1141 46.3166 89.6148 46.004C92.1155 45.5873 95.5539 45.3789 97.1168 45.2747C98.6798 45.2747 98.3672 45.4831 97.4294 46.9418C96.5959 48.2963 95.1371 50.9012 93.991 52.6725C92.8448 54.4438 92.0113 55.4858 90.1358 55.7984C88.2603 56.1109 85.3428 55.6942 84.0925 55.3816C82.8421 54.9648 83.2589 54.548 83.5715 53.1935V53.1935Z" stroke="#EF7F1A" stroke-width="1.04195" stroke-miterlimit="22.9256"/>
<path fill-rule="evenodd" clip-rule="evenodd" d="M87.5309 41.2111C87.5309 39.8565 87.3225 37.7726 87.8435 36.4181C88.2603 35.1678 89.6148 34.5426 91.8029 33.8132C93.8868 33.0839 96.9084 32.2503 98.263 32.0419C99.6175 31.7293 99.3049 31.9377 98.784 33.3965C98.263 34.751 97.4294 37.2517 96.7001 39.023C95.9707 40.7943 95.4497 41.8362 93.7826 42.3572C92.2197 42.9824 89.5106 43.0866 88.3645 42.9824C87.2183 42.8782 87.5309 42.4614 87.5309 41.2111V41.2111Z" stroke="#EF7F1A" stroke-width="1.04195" stroke-miterlimit="22.9256"/>
<path fill-rule="evenodd" clip-rule="evenodd" d="M84.9261 32.0419C84.6135 31.1042 83.78 29.6454 83.6758 28.6035C83.6758 27.4574 84.4051 26.6238 85.7597 25.4777C87.01 24.3315 88.8855 22.7686 89.8233 22.1434C90.6568 21.5182 90.5526 21.8308 90.5526 22.977C90.5526 24.1231 90.761 26.207 90.761 27.6657C90.8652 29.1245 90.761 30.0622 89.8233 30.8958C88.7813 31.8335 87.01 32.7713 86.0723 33.0839C85.2387 33.2923 85.3429 32.8755 84.9261 32.0419V32.0419Z" stroke="#EF7F1A" stroke-width="1.04195" stroke-miterlimit="22.9256"/>
<path fill-rule="evenodd" clip-rule="evenodd" d="M16.47 53.1935C16.1574 51.8389 16.0532 49.4425 15.2197 48.0879C14.3861 46.7334 12.8232 46.3166 10.3225 46.004C7.82182 45.5873 4.38339 45.3789 2.82047 45.2747C1.36174 45.2747 1.67432 45.4831 2.50788 46.9418C3.44563 48.2963 4.90436 50.9012 6.05051 52.6725C7.09245 54.4438 7.92601 55.4858 9.90572 55.7984C11.7812 56.1109 14.6987 55.6942 15.949 55.3816C17.1994 54.9648 16.7826 54.548 16.47 53.1935V53.1935Z" stroke="#EF7F1A" stroke-width="1.04195" stroke-miterlimit="22.9256"/>
<path fill-rule="evenodd" clip-rule="evenodd" d="M12.5106 41.2111C12.4064 39.8565 12.719 37.7726 12.1981 36.4181C11.6771 35.1678 10.4267 34.5426 8.23865 33.8132C6.05056 33.0839 3.1331 32.2503 1.77857 32.0419C0.424039 31.7293 0.632428 31.9377 1.2576 33.3965C1.77857 34.751 2.61213 37.2517 3.34149 39.023C4.07086 40.7943 4.59183 41.8362 6.15476 42.3572C7.82187 42.9824 10.5309 43.0866 11.6771 42.9824C12.8232 42.8782 12.5106 42.4614 12.5106 41.2111V41.2111Z" stroke="#EF7F1A" stroke-width="1.04195" stroke-miterlimit="22.9256"/>
<path fill-rule="evenodd" clip-rule="evenodd" d="M15.0113 32.0419C15.4281 31.1042 16.2616 29.6454 16.2616 28.6035C16.3658 27.4574 15.6365 26.6238 14.2819 25.4777C13.0316 24.3315 11.1561 22.7686 10.2183 22.1434C9.38478 21.5182 9.48898 21.8308 9.38478 22.977C9.38478 24.1231 9.28059 26.207 9.17639 27.6657C9.17639 29.1245 9.28059 30.0622 10.2183 30.8958C11.1561 31.8335 13.0316 32.7713 13.8652 33.0839C14.8029 33.2923 14.6987 32.8755 15.0113 32.0419V32.0419Z" stroke="#EF7F1A" stroke-width="1.04195" stroke-miterlimit="22.9256"/>
</svg>
