<svg width="101" height="95" viewBox="0 0 101 95" fill="none" xmlns="http://www.w3.org/2000/svg">
<path d="M93.4996 79.2069H7.75474C4.48588 79.2069 1.83594 82.2578 1.83594 86.0213C1.83594 89.7848 4.48588 92.8357 7.75474 92.8357H93.4996C96.7684 92.8357 99.4184 89.7848 99.4184 86.0213C99.4184 82.2578 96.7684 79.2069 93.4996 79.2069Z" stroke="#EF7F1A" stroke-width="2.33637" stroke-miterlimit="22.9256" stroke-linecap="round" stroke-linejoin="round"/>
<path d="M9.3123 89.4869C11.1618 89.4869 12.6611 87.9876 12.6611 86.1382C12.6611 84.2887 11.1618 82.7894 9.3123 82.7894C7.46281 82.7894 5.9635 84.2887 5.9635 86.1382C5.9635 87.9876 7.46281 89.4869 9.3123 89.4869Z" stroke="#EF7F1A" stroke-width="1.16819" stroke-miterlimit="22.9256" stroke-linecap="round" stroke-linejoin="round"/>
<path d="M22.7854 89.4869C24.6349 89.4869 26.1342 87.9876 26.1342 86.1382C26.1342 84.2887 24.6349 82.7894 22.7854 82.7894C20.936 82.7894 19.4366 84.2887 19.4366 86.1382C19.4366 87.9876 20.936 89.4869 22.7854 89.4869Z" stroke="#EF7F1A" stroke-width="1.16819" stroke-miterlimit="22.9256" stroke-linecap="round" stroke-linejoin="round"/>
<path d="M36.8815 89.4869C38.731 89.4869 40.2303 87.9876 40.2303 86.1382C40.2303 84.2887 38.731 82.7894 36.8815 82.7894C35.032 82.7894 33.5327 84.2887 33.5327 86.1382C33.5327 87.9876 35.032 89.4869 36.8815 89.4869Z" stroke="#EF7F1A" stroke-width="1.16819" stroke-miterlimit="22.9256" stroke-linecap="round" stroke-linejoin="round"/>
<path d="M50.5103 89.4869C52.3598 89.4869 53.8591 87.9876 53.8591 86.1382C53.8591 84.2887 52.3598 82.7894 50.5103 82.7894C48.6608 82.7894 47.1615 84.2887 47.1615 86.1382C47.1615 87.9876 48.6608 89.4869 50.5103 89.4869Z" stroke="#EF7F1A" stroke-width="1.16819" stroke-miterlimit="22.9256" stroke-linecap="round" stroke-linejoin="round"/>
<path d="M64.1392 89.4869C65.9887 89.4869 67.488 87.9876 67.488 86.1382C67.488 84.2887 65.9887 82.7894 64.1392 82.7894C62.2897 82.7894 60.7904 84.2887 60.7904 86.1382C60.7904 87.9876 62.2897 89.4869 64.1392 89.4869Z" stroke="#EF7F1A" stroke-width="1.16819" stroke-miterlimit="22.9256" stroke-linecap="round" stroke-linejoin="round"/>
<path d="M78.0795 89.4869C79.929 89.4869 81.4283 87.9876 81.4283 86.1382C81.4283 84.2887 79.929 82.7894 78.0795 82.7894C76.23 82.7894 74.7307 84.2887 74.7307 86.1382C74.7307 87.9876 76.23 89.4869 78.0795 89.4869Z" stroke="#EF7F1A" stroke-width="1.16819" stroke-miterlimit="22.9256" stroke-linecap="round" stroke-linejoin="round"/>
<path d="M92.1756 89.4869C94.0251 89.4869 95.5244 87.9876 95.5244 86.1382C95.5244 84.2887 94.0251 82.7894 92.1756 82.7894C90.3261 82.7894 88.8268 84.2887 88.8268 86.1382C88.8268 87.9876 90.3261 89.4869 92.1756 89.4869Z" stroke="#EF7F1A" stroke-width="1.16819" stroke-miterlimit="22.9256" stroke-linecap="round" stroke-linejoin="round"/>
<path d="M93.4216 43.5383H46.3827V79.2069H93.4216V43.5383Z" stroke="#EF7F1A" stroke-width="2.33637" stroke-miterlimit="22.9256" stroke-linecap="round" stroke-linejoin="round"/>
<path d="M69.9022 43.5383V79.2069" stroke="#EF7F1A" stroke-width="2.33637" stroke-miterlimit="22.9256" stroke-linecap="round" stroke-linejoin="round"/>
<path d="M66.6313 46.8871H49.4979V65.8117H66.6313V46.8871Z" stroke="#EF7F1A" stroke-width="1.16819" stroke-miterlimit="22.9256" stroke-linecap="round" stroke-linejoin="round"/>
<path d="M90.3065 46.8871H73.1731V58.2575H90.3065V46.8871Z" stroke="#EF7F1A" stroke-width="1.16819" stroke-miterlimit="22.9256" stroke-linecap="round" stroke-linejoin="round"/>
<path d="M90.3065 60.0487H73.1731V65.7338H90.3065V60.0487Z" stroke="#EF7F1A" stroke-width="1.16819" stroke-miterlimit="22.9256" stroke-linecap="round" stroke-linejoin="round"/>
<path d="M80.961 68.226H73.1731V73.9111H80.961V68.226Z" stroke="#EF7F1A" stroke-width="1.16819" stroke-miterlimit="22.9256" stroke-linecap="round" stroke-linejoin="round"/>
<path d="M90.3844 68.226H82.9858V73.9111H90.3844V68.226Z" stroke="#EF7F1A" stroke-width="1.16819" stroke-miterlimit="22.9256" stroke-linecap="round" stroke-linejoin="round"/>
<path d="M17.256 55.6096C18.6754 55.6096 19.8261 54.4589 19.8261 53.0396C19.8261 51.6202 18.6754 50.4696 17.256 50.4696C15.8367 50.4696 14.686 51.6202 14.686 53.0396C14.686 54.4589 15.8367 55.6096 17.256 55.6096Z" stroke="#EF7F1A" stroke-width="2.33637" stroke-miterlimit="22.9256" stroke-linecap="round" stroke-linejoin="round"/>
<path fill-rule="evenodd" clip-rule="evenodd" d="M20.0597 27.4174V45.4853C19.3588 45.4074 18.6579 45.3295 17.8791 45.3295H16.8666C16.0879 45.3295 15.3869 45.4074 14.686 45.4853V27.651C15.3869 27.8846 16.2436 28.0404 17.1003 28.0404C18.1906 28.0404 19.203 27.8068 20.0597 27.4174V27.4174Z" stroke="#EF7F1A" stroke-width="2.33637" stroke-miterlimit="22.9256" stroke-linecap="round" stroke-linejoin="round"/>
<path d="M17.1003 23.2119C18.4336 23.2119 19.5145 22.131 19.5145 20.7976C19.5145 19.4643 18.4336 18.3834 17.1003 18.3834C15.7669 18.3834 14.686 19.4643 14.686 20.7976C14.686 22.131 15.7669 23.2119 17.1003 23.2119Z" stroke="#EF7F1A" stroke-width="2.33637" stroke-miterlimit="22.9256" stroke-linecap="round" stroke-linejoin="round"/>
<path fill-rule="evenodd" clip-rule="evenodd" d="M44.0463 6.70153L24.0314 18.8507C23.5641 17.0594 22.3181 15.5019 20.7605 14.5673L42.4888 1.25H70.0579V6.70153H44.0463V6.70153Z" stroke="#EF7F1A" stroke-width="2.33637" stroke-miterlimit="22.9256" stroke-linecap="round" stroke-linejoin="round"/>
<path fill-rule="evenodd" clip-rule="evenodd" d="M16.8666 45.3295H17.879C22.7854 45.3295 26.7573 47.8217 26.7573 50.8589V79.2069H7.9884V50.8589C7.9884 47.8217 11.9602 45.3295 16.8666 45.3295V45.3295Z" stroke="#EF7F1A" stroke-width="2.33637" stroke-miterlimit="22.9256" stroke-linecap="round" stroke-linejoin="round"/>
<path d="M17.1002 28.0404C21.1002 28.0404 24.3429 24.7977 24.3429 20.7976C24.3429 16.7976 21.1002 13.5549 17.1002 13.5549C13.1001 13.5549 9.85742 16.7976 9.85742 20.7976C9.85742 24.7977 13.1001 28.0404 17.1002 28.0404Z" stroke="#EF7F1A" stroke-width="2.33637" stroke-miterlimit="22.9256" stroke-linecap="round" stroke-linejoin="round"/>
<path d="M67.7216 6.70153H64.1392V13.3991H67.7216V6.70153Z" stroke="#EF7F1A" stroke-width="1.16819" stroke-miterlimit="22.9256" stroke-linecap="round" stroke-linejoin="round"/>
<path d="M75.8989 13.3991H55.884V21.5764H75.8989V13.3991Z" stroke="#EF7F1A" stroke-width="1.16819" stroke-miterlimit="22.9256" stroke-linecap="round" stroke-linejoin="round"/>
<path d="M60.4009 21.6543H57.9088V26.5607H60.4009V21.6543Z" stroke="#EF7F1A" stroke-width="1.16819" stroke-miterlimit="22.9256" stroke-linecap="round" stroke-linejoin="round"/>
<path d="M73.7962 21.6543H71.3041V26.5607H73.7962V21.6543Z" stroke="#EF7F1A" stroke-width="1.16819" stroke-miterlimit="22.9256" stroke-linecap="round" stroke-linejoin="round"/>
</svg>
