<svg width="101" height="81" viewBox="0 0 101 81" fill="none" xmlns="http://www.w3.org/2000/svg">
<path fill-rule="evenodd" clip-rule="evenodd" d="M41.7461 17.0526H35.8638V31.7584C43.4841 31.7584 49.6338 37.9082 49.6338 45.5285C49.6338 53.1488 43.4841 59.2985 35.8638 59.2985V74.0044H41.7461V67.5873C43.7515 67.0526 45.6231 66.2504 47.3611 65.1809L51.9065 69.86L60.1953 61.5713L55.6499 56.8921C56.5857 55.1542 57.3878 53.2825 57.9226 51.4108H64.4734V39.6461H57.9226C57.3878 37.6408 56.5857 35.7691 55.6499 34.1649L60.1953 29.4857L51.9065 21.1969L47.3611 25.7424C45.6231 24.8066 43.7515 24.0044 41.7461 23.4697V17.0526V17.0526Z" stroke="#EF7F1A" stroke-width="2.13904" stroke-miterlimit="22.9256" stroke-linecap="round" stroke-linejoin="round"/>
<path d="M35.1953 52.614C39.0347 52.614 42.1472 49.5016 42.1472 45.6622C42.1472 41.8228 39.0347 38.7103 35.1953 38.7103C31.3559 38.7103 28.2434 41.8228 28.2434 45.6622C28.2434 49.5016 31.3559 52.614 35.1953 52.614Z" stroke="#EF7F1A" stroke-width="1.06952" stroke-miterlimit="22.9256" stroke-linecap="round" stroke-linejoin="round"/>
<path d="M30.5162 40.582H24.0991V31.3574" stroke="#EF7F1A" stroke-width="1.06952" stroke-miterlimit="22.9256" stroke-linecap="round" stroke-linejoin="round"/>
<path d="M28.2435 45.6622H15.543" stroke="#EF7F1A" stroke-width="1.06952" stroke-miterlimit="22.9256" stroke-linecap="round" stroke-linejoin="round"/>
<path d="M30.5162 50.7424H24.0991V60.3681" stroke="#EF7F1A" stroke-width="1.06952" stroke-miterlimit="22.9256" stroke-linecap="round" stroke-linejoin="round"/>
<path d="M23.9654 68.1221C26.1066 68.1221 27.8424 66.3863 27.8424 64.2451C27.8424 62.1039 26.1066 60.3681 23.9654 60.3681C21.8242 60.3681 20.0884 62.1039 20.0884 64.2451C20.0884 66.3863 21.8242 68.1221 23.9654 68.1221Z" stroke="#EF7F1A" stroke-width="1.06952" stroke-miterlimit="22.9256" stroke-linecap="round" stroke-linejoin="round"/>
<path d="M23.9654 31.3574C26.1066 31.3574 27.8424 29.6216 27.8424 27.4804C27.8424 25.3391 26.1066 23.6033 23.9654 23.6033C21.8242 23.6033 20.0884 25.3391 20.0884 27.4804C20.0884 29.6216 21.8242 31.3574 23.9654 31.3574Z" stroke="#EF7F1A" stroke-width="1.06952" stroke-miterlimit="22.9256" stroke-linecap="round" stroke-linejoin="round"/>
<path d="M11.7996 49.1381C13.9408 49.1381 15.6766 47.4023 15.6766 45.2611C15.6766 43.1199 13.9408 41.3841 11.7996 41.3841C9.6584 41.3841 7.92261 43.1199 7.92261 45.2611C7.92261 47.4023 9.6584 49.1381 11.7996 49.1381Z" stroke="#EF7F1A" stroke-width="1.06952" stroke-miterlimit="22.9256" stroke-linecap="round" stroke-linejoin="round"/>
<path d="M72.6285 11.9723H1.63916V79.2183H72.6285V11.9723Z" stroke="#EF7F1A" stroke-width="2.13904" stroke-miterlimit="22.9256" stroke-linecap="round" stroke-linejoin="round"/>
<path d="M99.3664 28.9509H72.6284V70.6622H99.3664V28.9509Z" stroke="#EF7F1A" stroke-width="2.13904" stroke-miterlimit="22.9256" stroke-linecap="round" stroke-linejoin="round"/>
<path fill-rule="evenodd" clip-rule="evenodd" d="M8.9921 1.67822H66.4787L72.6285 11.9723H1.63916L8.9921 1.67822Z" stroke="#EF7F1A" stroke-width="2.13904" stroke-miterlimit="22.9256" stroke-linecap="round" stroke-linejoin="round"/>
<path fill-rule="evenodd" clip-rule="evenodd" d="M72.6284 21.3306H94.6872L99.5001 28.9509H72.6284V21.3306Z" stroke="#EF7F1A" stroke-width="2.13904" stroke-miterlimit="22.9256" stroke-linecap="round" stroke-linejoin="round"/>
<path d="M95.0883 36.1702H72.6284V42.5873H95.0883V36.1702Z" stroke="#EF7F1A" stroke-width="1.06952" stroke-miterlimit="22.9256" stroke-linecap="round" stroke-linejoin="round"/>
<path d="M95.0883 47.5338H72.6284V53.951H95.0883V47.5338Z" stroke="#EF7F1A" stroke-width="1.06952" stroke-miterlimit="22.9256" stroke-linecap="round" stroke-linejoin="round"/>
<path d="M95.0883 58.8975H72.6284V65.3146H95.0883V58.8975Z" stroke="#EF7F1A" stroke-width="1.06952" stroke-miterlimit="22.9256" stroke-linecap="round" stroke-linejoin="round"/>
</svg>
