<svg width="208" height="114" viewBox="0 0 208 114" fill="none" xmlns="http://www.w3.org/2000/svg">
<path fill-rule="evenodd" clip-rule="evenodd" d="M194.457 19.7219C196.245 20.3554 198.549 19.9995 200.531 19.5225C202.52 19.0527 204.187 18.4619 205.317 18.2625C206.447 18.0632 207.041 18.2625 207.442 18.5971C207.835 18.9317 208.036 19.4086 207.993 19.7788C207.957 20.1561 207.678 20.4337 207.456 20.7683C207.242 21.1029 207.084 21.5015 205.954 22.2703C204.816 23.0391 202.713 24.1852 200.931 25.3883C199.143 26.5913 197.676 27.8584 196.682 28.67C195.687 29.4744 195.172 29.8303 194.042 31.1971C192.911 32.5567 191.166 34.9272 187.116 39.1343C183.067 43.3414 176.721 49.3852 170.668 54.5177C164.609 59.6502 158.856 63.8787 153.476 67.4665C148.103 71.0614 143.102 74.0227 139.59 75.8024C136.077 77.582 134.052 78.1729 132.464 78.5288C130.876 78.8847 129.724 78.9986 129.087 78.6641C128.45 78.3295 128.336 77.5393 128.472 76.6922C128.615 75.8451 129.008 74.9339 129.466 74.1437C129.924 73.3536 130.439 72.6844 130.618 72.1719C130.797 71.6593 130.632 71.3034 130.139 70.6271C129.645 69.958 128.808 68.9685 128.45 68.278C128.092 67.5875 128.214 67.196 128.193 66.3631C128.178 65.5373 128.014 64.2702 127.499 62.7326C126.984 61.1878 126.111 59.3726 125.317 57.1445C124.522 54.9092 123.807 52.2682 123.371 48.7089C122.934 45.1567 122.777 40.6933 123.549 36.3866C124.322 32.0869 126.032 27.9367 128.157 24.2279C130.282 20.512 132.822 17.2375 136.291 14.1764C139.761 11.1154 144.168 8.26799 148.797 6.06122C153.419 3.84733 158.263 2.26699 160.903 1.47682C163.543 0.686657 163.979 0.686657 164.852 0.985639C165.725 1.2775 167.034 1.86835 169.001 2.80089C170.962 3.72631 173.58 4.99342 176.263 6.35308C178.939 7.71986 181.679 9.17917 184.004 10.7737C186.322 12.3754 188.225 14.1124 189.813 15.7924C191.402 17.4724 192.675 19.0883 194.457 19.7219Z" fill="#EF7F04"/>
<path fill-rule="evenodd" clip-rule="evenodd" d="M67.3659 72.115C66.9223 71.7164 65.8992 71.6167 64.6114 71.5669C63.3236 71.5099 61.7783 71.5099 60.2329 71.0187C58.6804 70.5276 57.1279 69.5523 54.724 68.1001C52.3202 66.6479 49.0649 64.7116 45.6093 63.1811C42.1466 61.6506 38.4907 60.5259 35.493 59.8852C32.4953 59.2445 30.1701 59.0879 28.0524 59.1591C25.9347 59.2303 24.0316 59.5293 22.2645 59.9706C20.5045 60.412 18.8876 60.9886 17.1634 61.7574C15.4392 62.5262 13.6148 63.4801 11.6688 64.8611C9.71568 66.2422 7.6409 68.0574 6.03116 69.8371C4.42142 71.6167 3.28387 73.3679 2.38241 75.4537C1.48096 77.5465 0.822753 79.974 0.436415 82.2804C0.0572319 84.594 -0.0429298 86.7865 0.0143054 88.9292C0.0643863 91.0719 0.271864 93.1719 0.693974 95.0939C1.12324 97.0231 1.76713 98.7814 2.48258 100.44C3.20517 102.099 3.99931 103.665 4.45004 104.982C4.89361 106.299 5.00093 107.359 5.51604 108.676C6.03116 109.986 6.96839 111.545 7.59082 112.485C8.22041 113.424 8.54236 113.738 9.03601 113.78C9.52967 113.823 10.1879 113.581 11.9049 112.72C13.6148 111.851 16.3764 110.356 19.7819 108.085C23.1874 105.815 27.2368 102.775 31.0072 99.7353C34.7776 96.6956 38.2761 93.656 40.7157 91.8194C43.1554 89.9828 44.5433 89.3492 46.6897 88.5377C48.8288 87.7262 51.7264 86.7438 53.5937 85.7329C55.461 84.7292 56.2909 83.7041 57.6931 82.3231C59.1025 80.9492 61.07 79.2194 62.8085 77.7601C64.5399 76.2936 66.0423 75.0977 66.8579 74.1509C67.6735 73.2042 67.8095 72.5137 67.3659 72.115Z" fill="#EF7F04"/>
</svg>
